# xmcd
#
# Track frame offsets: 
#        183
#        11863
#        23160
#        43290
#        58950
#        77395
#        90333
#        101145
#        110558
#        127735
#        146890
#        167075
#        178023
#        191843
#
# Disc length: 2901 seconds
#
# Revision: 2
# Processed by: cddbd v1.5.2PL0 Copyright (c) Steve Scherf et al.
# Submitted via: ExactAudioCopy v1.0b1
#
DISCID=c00b530e
DTITLE=TUCET - Co takhle zbalit ňáký baby
DYEAR=1992
DGENRE=Blues
TTITLE0=Tak se to prostě dělá
TTITLE1=Hezký holky se vdávaj
TTITLE2=Neberou
TTITLE3=Dovolená
TTITLE4=Já nejsem žádnej malej debil
TTITLE5=Kdybych byl bluesman
TTITLE6=Návody
TTITLE7=Dveře by měly vrzat
TTITLE8=Pouštěla sis mě
TTITLE9=Mám ošklivý obličej
TTITLE10=a bude klid
TTITLE11=Prej sa málo hejbu(zaplať pámbu za to)
TTITLE12=Peněženka
TTITLE13=Šatnář
EXTD=YEAR: 1992
EXTT0=
EXTT1=
EXTT2=
EXTT3=
EXTT4=
EXTT5=
EXTT6=
EXTT7=
EXTT8=
EXTT9=
EXTT10=
EXTT11=
EXTT12=
EXTT13=
PLAYORDER=
